# xmcd
#
# Track frame offsets:
#	150
#	9927
#	22105
#	33570
#	46835
#	58472
#	69997
#	81227
#	92635
#	103095
#	112260
#	122212
#	134177
#	149937
#	159352
#	168335
#	182777
#	194240
#	207877
#	219107
#	239087
#
# Disc length: 3372 seconds
# Revision: 5
# Processed by: cddbd v1.5.2PL0 Copyright (c) Steve Scherf et al.
# Submitted via: dBpowerAMP V12.0
#
DISCID=490d2a15
DTITLE=Red Steagall - Lone Star Beer and Bob Wills Music/For All Our Cowboy Friends
DYEAR=2000
DGENRE=Country
TTITLE0=Lone Star Beer and Bob Wills Music
TTITLE1=My First Night Without You
TTITLE2=Under the "X" in Texas
TTITLE3=Someday (You'll Want Me to Want You)
TTITLE4=Neons and Nylons
TTITLE5=Truck Drivin' Man
TTITLE6=Alexis from Texas
TTITLE7=Whatever Made Me Think
TTITLE8=I Saw Your Face in the Moon
TTITLE9=The Walls of This Old Honky Tonk
TTITLE10=Rodeo
TTITLE11=For All Our Cowboy Friends
TTITLE12=Dawson Legate
TTITLE13=Rodeo Blues
TTITLE14=Two Pairs of Levis and a Pair of Justin Boots
TTITLE15=Freckles Brown
TTITLE16=My Adobe Hacienda
TTITLE17=Bandito Gold
TTITLE18=The Night the Copenhagen Saved the Day
TTITLE19=Little Joe, the Wrangler
TTITLE20=My America
EXTD=
EXTT0=
EXTT1=
EXTT2=
EXTT3=
EXTT4=
EXTT5=
EXTT6=
EXTT7=
EXTT8=
EXTT9=
EXTT10=
EXTT11=
EXTT12=
EXTT13=
EXTT14=
EXTT15=
EXTT16=
EXTT17=
EXTT18=
EXTT19=
EXTT20=
PLAYORDER=
